<svg xmlns="http://www.w3.org/2000/svg" viewBox="0 0 512 512"><defs><style>.cls-1{fill:#80dbff;}.cls-2{fill:#fff;}.cls-3{fill:#ddd;}.cls-4{fill:#ff7045;}.cls-5{fill:#76d67b;}.cls-6{fill:#d31a11;}</style></defs><title>Development</title><g id="BULINE"><circle class="cls-1" cx="256" cy="256" r="256"/></g><g id="Icons"><path class="cls-2" d="M433.16,220.31a66.75,66.75,0,0,0,.4-7.25,66.08,66.08,0,0,0-62.58-66,94.6,94.6,0,0,0-174.25,2.65A78.21,78.21,0,0,0,80.18,217.9c0,.72,0,1.44.06,2.15a62.51,62.51,0,0,0,15.66,123H416.58a62.51,62.51,0,0,0,16.58-122.77Z"/><path class="cls-3" d="M141.34,217.9c0,.72,0,1.43.06,2.15a62.51,62.51,0,0,0,15.66,123H96.6a62.51,62.51,0,0,1-15.67-123c0-.72-.05-1.43-.05-2.15A78.21,78.21,0,0,1,189.3,145.75,78.25,78.25,0,0,0,141.34,217.9Z"/><path class="cls-4" d="M251.7,148.48A57.46,57.46,0,0,0,232.27,260V360.67A24.77,24.77,0,0,0,257,385.44a14.09,14.09,0,0,0,14.1-14.09l-5.68-4.77a7.08,7.08,0,0,1-1.32-9.38l3.79-5.61a7.88,7.88,0,0,0-.32-9.26L264,337.75a7.08,7.08,0,0,1,.07-8.79l2.84-3.52a7.89,7.89,0,0,0-.26-10.2l-2.1-2.36a7.06,7.06,0,0,1-.23-9.15l2.15-2.68a7.88,7.88,0,0,0-.79-10.74,7.07,7.07,0,0,1-.49-9.92l5.92-6.63V260A57.46,57.46,0,0,0,251.7,148.48Zm0,79.42a22,22,0,1,1,22-22A22,22,0,0,1,251.7,227.9Z"/><circle class="cls-2" cx="138.7" cy="76.14" r="27"/><circle class="cls-1" cx="364.7" cy="276.44" r="27"/><circle class="cls-2" cx="391.7" cy="103.14" r="17"/><circle class="cls-1" cx="87.7" cy="286.28" r="17"/><path class="cls-5" d="M140,309.81,96.15,340.2a6.6,6.6,0,0,0,3.76,12h5.57a6.59,6.59,0,0,1,6.59,6.59V445.6a18.25,18.25,0,0,0,18.25,18.25h26.91a18.25,18.25,0,0,0,18.25-18.25V358.81a6.59,6.59,0,0,1,6.59-6.59h5.57a6.6,6.6,0,0,0,3.76-12l-43.87-30.39A6.58,6.58,0,0,0,140,309.81Z"/><path class="cls-6" d="M363.39,462.67l43.87-30.39a6.59,6.59,0,0,0-3.76-12h-5.57a6.6,6.6,0,0,1-6.59-6.6V326.88a18.25,18.25,0,0,0-18.25-18.25H346.18a18.25,18.25,0,0,0-18.25,18.25v86.79a6.6,6.6,0,0,1-6.59,6.6h-5.57a6.59,6.59,0,0,0-3.76,12l43.87,30.39A6.58,6.58,0,0,0,363.39,462.67Z"/></g></svg>